<svg width="20" height="20" viewBox="0 0 20 20" fill="none" xmlns="http://www.w3.org/2000/svg">
<path d="M15.8327 3.33268H14.166V2.49935C14.166 2.27834 14.0782 2.06637 13.9219 1.91009C13.7657 1.75381 13.5537 1.66602 13.3327 1.66602C13.1117 1.66602 12.8997 1.75381 12.7434 1.91009C12.5871 2.06637 12.4993 2.27834 12.4993 2.49935V3.33268H7.49935V2.49935C7.49935 2.27834 7.41155 2.06637 7.25527 1.91009C7.09899 1.75381 6.88703 1.66602 6.66602 1.66602C6.445 1.66602 6.23304 1.75381 6.07676 1.91009C5.92048 2.06637 5.83268 2.27834 5.83268 2.49935V3.33268H4.16602C3.50297 3.33268 2.86709 3.59607 2.39825 4.06492C1.92941 4.53376 1.66602 5.16964 1.66602 5.83268V15.8327C1.66602 16.4957 1.92941 17.1316 2.39825 17.6005C2.86709 18.0693 3.50297 18.3327 4.16602 18.3327H15.8327C16.4957 18.3327 17.1316 18.0693 17.6005 17.6005C18.0693 17.1316 18.3327 16.4957 18.3327 15.8327V5.83268C18.3327 5.16964 18.0693 4.53376 17.6005 4.06492C17.1316 3.59607 16.4957 3.33268 15.8327 3.33268ZM16.666 15.8327C16.666 16.0537 16.5782 16.2657 16.4219 16.4219C16.2657 16.5782 16.0537 16.666 15.8327 16.666H4.16602C3.945 16.666 3.73304 16.5782 3.57676 16.4219C3.42048 16.2657 3.33268 16.0537 3.33268 15.8327V9.99935H16.666V15.8327ZM16.666 8.33268H3.33268V5.83268C3.33268 5.61167 3.42048 5.39971 3.57676 5.24343C3.73304 5.08715 3.945 4.99935 4.16602 4.99935H5.83268V5.83268C5.83268 6.0537 5.92048 6.26566 6.07676 6.42194C6.23304 6.57822 6.445 6.66602 6.66602 6.66602C6.88703 6.66602 7.09899 6.57822 7.25527 6.42194C7.41155 6.26566 7.49935 6.0537 7.49935 5.83268V4.99935H12.4993V5.83268C12.4993 6.0537 12.5871 6.26566 12.7434 6.42194C12.8997 6.57822 13.1117 6.66602 13.3327 6.66602C13.5537 6.66602 13.7657 6.57822 13.9219 6.42194C14.0782 6.26566 14.166 6.0537 14.166 5.83268V4.99935H15.8327C16.0537 4.99935 16.2657 5.08715 16.4219 5.24343C16.5782 5.39971 16.666 5.61167 16.666 5.83268V8.33268Z" fill="#1088C8"/>
</svg>
