<svg width="26" height="27" viewBox="0 0 26 27" fill="none" xmlns="http://www.w3.org/2000/svg">
<path d="M11.6147 1.75183C12.0477 0.405687 13.9523 0.405687 14.3853 1.75183C14.7236 2.8035 16.0644 3.10952 16.8255 2.30878C17.7997 1.28383 19.5157 2.11021 19.3218 3.51093C19.1703 4.60524 20.2454 5.46266 21.2786 5.07145C22.601 4.5707 23.7885 6.05978 23.0061 7.23765C22.3948 8.15785 22.9914 9.39686 24.092 9.49267C25.5008 9.6153 25.9246 11.4722 24.7086 12.1939C23.7585 12.7577 23.7585 14.1329 24.7086 14.6968C25.9246 15.4185 25.5008 17.2753 24.092 17.398C22.9914 17.4938 22.3948 18.7328 23.0061 19.653C23.7885 20.8308 22.601 22.3199 21.2786 21.8192C20.2454 21.428 19.1703 22.2854 19.3218 23.3797C19.5157 24.7804 17.7997 25.6068 16.8255 24.5818C16.0644 23.7811 14.7236 24.0871 14.3853 25.1388C13.9523 26.4849 12.0477 26.4849 11.6147 25.1388C11.2764 24.0871 9.93564 23.7811 9.17454 24.5818C8.20031 25.6068 6.48432 24.7804 6.67824 23.3797C6.82975 22.2854 5.75457 21.428 4.72141 21.8192C3.39896 22.3199 2.21146 20.8308 2.99393 19.653C3.60523 18.7328 3.00855 17.4938 1.90797 17.398C0.499213 17.2753 0.0753982 15.4185 1.29144 14.6968C2.24146 14.1329 2.24146 12.7577 1.29144 12.1939C0.0753984 11.4722 0.499213 9.6153 1.90797 9.49267C3.00855 9.39686 3.60523 8.15785 2.99393 7.23765C2.21146 6.05978 3.39896 4.5707 4.72141 5.07145C5.75457 5.46266 6.82975 4.60524 6.67824 3.51093C6.48432 2.11021 8.20031 1.28383 9.17454 2.30878C9.93564 3.10952 11.2764 2.80351 11.6147 1.75183Z" fill="#F89D3C"/>
<path d="M14.767 7.36364V19H12.6591V9.41477H12.5909L9.86932 11.1534V9.22159L12.7614 7.36364H14.767Z" fill="#FAFAFA"/>
</svg>
