<svg width="26" height="27" viewBox="0 0 26 27" fill="none" xmlns="http://www.w3.org/2000/svg">
<path d="M11.6147 1.75183C12.0477 0.405687 13.9523 0.405687 14.3853 1.75183C14.7236 2.8035 16.0644 3.10952 16.8255 2.30878C17.7997 1.28383 19.5157 2.11021 19.3218 3.51093C19.1703 4.60524 20.2454 5.46266 21.2786 5.07145C22.601 4.5707 23.7885 6.05978 23.0061 7.23765C22.3948 8.15785 22.9914 9.39686 24.092 9.49267C25.5008 9.6153 25.9246 11.4722 24.7086 12.1939C23.7585 12.7577 23.7585 14.1329 24.7086 14.6968C25.9246 15.4185 25.5008 17.2753 24.092 17.398C22.9914 17.4938 22.3948 18.7328 23.0061 19.653C23.7885 20.8308 22.601 22.3199 21.2786 21.8192C20.2454 21.428 19.1703 22.2854 19.3218 23.3797C19.5157 24.7804 17.7997 25.6068 16.8255 24.5818C16.0644 23.7811 14.7236 24.0871 14.3853 25.1388C13.9523 26.4849 12.0477 26.4849 11.6147 25.1388C11.2764 24.0871 9.93564 23.7811 9.17454 24.5818C8.20031 25.6068 6.48432 24.7804 6.67824 23.3797C6.82975 22.2854 5.75457 21.428 4.72141 21.8192C3.39896 22.3199 2.21146 20.8308 2.99393 19.653C3.60523 18.7328 3.00855 17.4938 1.90797 17.398C0.499213 17.2753 0.0753982 15.4185 1.29144 14.6968C2.24146 14.1329 2.24146 12.7577 1.29144 12.1939C0.0753984 11.4722 0.499213 9.6153 1.90797 9.49267C3.00855 9.39686 3.60523 8.15785 2.99393 7.23765C2.21146 6.05978 3.39896 4.5707 4.72141 5.07145C5.75457 5.46266 6.82975 4.60524 6.67824 3.51093C6.48432 2.11021 8.20031 1.28383 9.17454 2.30878C9.93564 3.10952 11.2764 2.80351 11.6147 1.75183Z" fill="#9999A4"/>
<path d="M9.03409 19V17.4773L13.0739 13.517C13.4602 13.1269 13.7822 12.7803 14.0398 12.4773C14.2973 12.1742 14.4905 11.8807 14.6193 11.5966C14.7481 11.3125 14.8125 11.0095 14.8125 10.6875C14.8125 10.3201 14.7292 10.0057 14.5625 9.74432C14.3958 9.47917 14.1667 9.27462 13.875 9.13068C13.5833 8.98674 13.2519 8.91477 12.8807 8.91477C12.4981 8.91477 12.1629 8.99432 11.875 9.15341C11.5871 9.30871 11.3636 9.5303 11.2045 9.81818C11.0492 10.1061 10.9716 10.4489 10.9716 10.8466H8.96591C8.96591 10.108 9.13447 9.46591 9.47159 8.92045C9.80871 8.375 10.2727 7.95265 10.8636 7.65341C11.4583 7.35417 12.1402 7.20455 12.9091 7.20455C13.6894 7.20455 14.375 7.35038 14.9659 7.64205C15.5568 7.93371 16.0152 8.33333 16.3409 8.84091C16.6705 9.34848 16.8352 9.92803 16.8352 10.5795C16.8352 11.0152 16.7519 11.4432 16.5852 11.8636C16.4186 12.2841 16.125 12.75 15.7045 13.2614C15.2879 13.7727 14.7027 14.392 13.9489 15.1193L11.9432 17.1591V17.2386H17.0114V19H9.03409Z" fill="#FAFAFA"/>
</svg>
