<svg width="26" height="27" viewBox="0 0 26 27" fill="none" xmlns="http://www.w3.org/2000/svg">
<path d="M11.6147 1.75183C12.0477 0.405687 13.9523 0.405687 14.3853 1.75183C14.7236 2.8035 16.0644 3.10952 16.8255 2.30878C17.7997 1.28383 19.5157 2.11021 19.3218 3.51093C19.1703 4.60524 20.2454 5.46266 21.2786 5.07145C22.601 4.5707 23.7885 6.05978 23.0061 7.23765C22.3948 8.15785 22.9914 9.39686 24.092 9.49267C25.5008 9.6153 25.9246 11.4722 24.7086 12.1939C23.7585 12.7577 23.7585 14.1329 24.7086 14.6968C25.9246 15.4185 25.5008 17.2753 24.092 17.398C22.9914 17.4938 22.3948 18.7328 23.0061 19.653C23.7885 20.8308 22.601 22.3199 21.2786 21.8192C20.2454 21.428 19.1703 22.2854 19.3218 23.3797C19.5157 24.7804 17.7997 25.6068 16.8255 24.5818C16.0644 23.7811 14.7236 24.0871 14.3853 25.1388C13.9523 26.4849 12.0477 26.4849 11.6147 25.1388C11.2764 24.0871 9.93564 23.7811 9.17454 24.5818C8.20031 25.6068 6.48432 24.7804 6.67824 23.3797C6.82975 22.2854 5.75457 21.428 4.72141 21.8192C3.39896 22.3199 2.21146 20.8308 2.99393 19.653C3.60523 18.7328 3.00855 17.4938 1.90797 17.398C0.499213 17.2753 0.0753982 15.4185 1.29144 14.6968C2.24146 14.1329 2.24146 12.7577 1.29144 12.1939C0.0753984 11.4722 0.499213 9.6153 1.90797 9.49267C3.00855 9.39686 3.60523 8.15785 2.99393 7.23765C2.21146 6.05978 3.39896 4.5707 4.72141 5.07145C5.75457 5.46266 6.82975 4.60524 6.67824 3.51093C6.48432 2.11021 8.20031 1.28383 9.17454 2.30878C9.93564 3.10952 11.2764 2.80351 11.6147 1.75183Z" fill="#D97811"/>
<path d="M12.7102 19.1591C11.892 19.1591 11.1648 19.0189 10.5284 18.7386C9.89583 18.4583 9.39583 18.0682 9.02841 17.5682C8.66098 17.0682 8.46591 16.4905 8.44318 15.8352H10.5795C10.5985 16.1496 10.7027 16.4242 10.892 16.6591C11.0814 16.8902 11.3333 17.0701 11.6477 17.1989C11.9621 17.3277 12.3144 17.392 12.7045 17.392C13.1212 17.392 13.4905 17.3201 13.8125 17.1761C14.1345 17.0284 14.3864 16.8239 14.5682 16.5625C14.75 16.3011 14.839 16 14.8352 15.6591C14.839 15.3068 14.7481 14.9962 14.5625 14.7273C14.3769 14.4583 14.108 14.2481 13.7557 14.0966C13.4072 13.9451 12.9867 13.8693 12.4943 13.8693H11.4659V12.2443H12.4943C12.8996 12.2443 13.2538 12.1742 13.5568 12.0341C13.8636 11.8939 14.1042 11.697 14.2784 11.4432C14.4527 11.1856 14.5379 10.8883 14.5341 10.5511C14.5379 10.2216 14.464 9.93561 14.3125 9.69318C14.1648 9.44697 13.9545 9.25568 13.6818 9.11932C13.4129 8.98295 13.0966 8.91477 12.733 8.91477C12.3769 8.91477 12.0473 8.97917 11.7443 9.10795C11.4413 9.23674 11.197 9.42045 11.0114 9.65909C10.8258 9.89394 10.7273 10.1742 10.7159 10.5H8.6875C8.70265 9.84848 8.89015 9.27652 9.25 8.78409C9.61364 8.28788 10.0985 7.90151 10.7045 7.625C11.3106 7.3447 11.9905 7.20455 12.7443 7.20455C13.5208 7.20455 14.1951 7.35038 14.767 7.64205C15.3428 7.92992 15.7879 8.31818 16.1023 8.80682C16.4167 9.29545 16.5739 9.83523 16.5739 10.4261C16.5777 11.0814 16.3845 11.6307 15.9943 12.0739C15.608 12.517 15.1004 12.8068 14.4716 12.9432V13.0341C15.2898 13.1477 15.9167 13.4508 16.3523 13.9432C16.7917 14.4318 17.0095 15.0398 17.0057 15.767C17.0057 16.4186 16.8201 17.0019 16.4489 17.517C16.0814 18.0284 15.5739 18.4299 14.9261 18.7216C14.2822 19.0133 13.5436 19.1591 12.7102 19.1591Z" fill="#FAFAFA"/>
</svg>
