<svg width="18" height="21" viewBox="0 0 18 21" fill="none" xmlns="http://www.w3.org/2000/svg">
<path d="M14.9999 2.47997C13.4086 0.888672 11.2504 -0.00531008 8.99993 -0.00531006C6.74949 -0.00531004 4.59123 0.888672 2.99993 2.47997C1.40863 4.07127 0.514648 6.22954 0.514648 8.47997C0.514648 10.7304 1.40863 12.8887 2.99993 14.48L8.26993 19.76C8.36289 19.8537 8.47349 19.9281 8.59535 19.9789C8.71721 20.0296 8.84792 20.0558 8.97993 20.0558C9.11194 20.0558 9.24265 20.0296 9.36451 19.9789C9.48637 19.9281 9.59697 19.8537 9.68993 19.76L14.9999 14.43C16.5846 12.8453 17.4748 10.696 17.4748 8.45497C17.4748 6.21392 16.5846 4.06465 14.9999 2.47997ZM13.5699 13L8.99993 17.59L4.42993 13C3.52707 12.0963 2.91241 10.9452 2.66362 9.69226C2.41484 8.43931 2.54312 7.14072 3.03223 5.96065C3.52135 4.78059 4.34935 3.77202 5.41156 3.06245C6.47377 2.35288 7.72251 1.97415 8.99993 1.97415C10.2773 1.97415 11.5261 2.35288 12.5883 3.06245C13.6505 3.77202 14.4785 4.78059 14.9676 5.96065C15.4567 7.14072 15.585 8.43931 15.3362 9.69226C15.0875 10.9452 14.4728 12.0963 13.5699 13ZM5.99993 5.40997C5.19264 6.21974 4.73932 7.31654 4.73932 8.45997C4.73932 9.6034 5.19264 10.7002 5.99993 11.51C6.59969 12.1108 7.36352 12.5211 8.19558 12.6894C9.02764 12.8577 9.89088 12.7766 10.677 12.4561C11.4631 12.1357 12.1371 11.5903 12.6144 10.8882C13.0917 10.1862 13.3511 9.35884 13.3599 8.50997C13.3644 7.94318 13.2553 7.38123 13.0388 6.85736C12.8224 6.33349 12.5032 5.85833 12.0999 5.45997C11.7036 5.05455 11.231 4.73151 10.7094 4.50944C10.1877 4.28736 9.62727 4.17065 9.06033 4.166C8.49339 4.16135 7.93113 4.26887 7.4059 4.48236C6.88067 4.69585 6.40285 5.0111 5.99993 5.40997ZM10.6899 10.09C10.311 10.4747 9.81014 10.7159 9.27306 10.7722C8.73597 10.8286 8.19599 10.6966 7.74544 10.3989C7.29488 10.1012 6.96173 9.65621 6.80294 9.14005C6.64415 8.6239 6.66958 8.06861 6.87489 7.56913C7.0802 7.06964 7.45263 6.65699 7.92851 6.40171C8.4044 6.14643 8.95418 6.06438 9.48387 6.16959C10.0135 6.2748 10.4902 6.56073 10.8324 6.9785C11.1746 7.39627 11.3611 7.91994 11.3599 8.45997C11.3454 9.07724 11.0864 9.6635 10.6399 10.09H10.6899Z" fill="white"/>
</svg>
