<svg width="18" height="21" viewBox="0 0 18 21" fill="none" xmlns="http://www.w3.org/2000/svg">
<path d="M15.0009 2.72368C13.4096 1.13239 11.2513 0.238403 9.00091 0.238403C6.75047 0.238403 4.59221 1.13239 3.00091 2.72368C1.40961 4.31498 0.515625 6.47325 0.515625 8.72369C0.515625 10.9741 1.40961 13.1324 3.00091 14.7237L8.27091 20.0037C8.36387 20.0974 8.47447 20.1718 8.59633 20.2226C8.71819 20.2733 8.84889 20.2995 8.98091 20.2995C9.11292 20.2995 9.24362 20.2733 9.36548 20.2226C9.48734 20.1718 9.59794 20.0974 9.69091 20.0037L15.0009 14.6737C16.5856 13.089 17.4758 10.9397 17.4758 8.69868C17.4758 6.45763 16.5856 4.30836 15.0009 2.72368ZM13.5709 13.2437L9.00091 17.8337L4.43091 13.2437C3.52805 12.34 2.91338 11.1889 2.6646 9.93598C2.41582 8.68302 2.54409 7.38443 3.03321 6.20437C3.52233 5.0243 4.35032 4.01573 5.41254 3.30616C6.47475 2.59659 7.72349 2.21787 9.00091 2.21787C10.2783 2.21787 11.5271 2.59659 12.5893 3.30616C13.6515 4.01573 14.4795 5.0243 14.9686 6.20437C15.4577 7.38443 15.586 8.68302 15.3372 9.93598C15.0884 11.1889 14.4738 12.34 13.5709 13.2437ZM6.00091 5.65368C5.19362 6.46346 4.7403 7.56025 4.7403 8.70368C4.7403 9.84712 5.19362 10.9439 6.00091 11.7537C6.60067 12.3545 7.36449 12.7648 8.19656 12.9331C9.02862 13.1014 9.89186 13.0203 10.678 12.6998C11.4641 12.3794 12.1381 11.834 12.6154 11.1319C13.0927 10.4299 13.352 9.60256 13.3609 8.75368C13.3654 8.18689 13.2562 7.62494 13.0398 7.10107C12.8234 6.5772 12.5041 6.10204 12.1009 5.70368C11.7046 5.29826 11.232 4.97522 10.7103 4.75315C10.1887 4.53108 9.62825 4.41436 9.06131 4.40971C8.49437 4.40507 7.93211 4.51258 7.40688 4.72607C6.88165 4.93956 6.40383 5.25482 6.00091 5.65368ZM10.6909 10.3337C10.3119 10.7184 9.81112 10.9596 9.27403 11.0159C8.73695 11.0723 8.19697 10.9403 7.74641 10.6426C7.29586 10.3449 6.9627 9.89993 6.80391 9.38377C6.64512 8.86761 6.67056 8.31232 6.87586 7.81284C7.08117 7.31336 7.45361 6.9007 7.92949 6.64542C8.40538 6.39014 8.95516 6.30809 9.48484 6.4133C10.0145 6.51851 10.4912 6.80444 10.8334 7.22222C11.1756 7.63999 11.3621 8.16365 11.3609 8.70368C11.3464 9.32096 11.0874 9.90721 10.6409 10.3337H10.6909Z" fill="url(#paint0_linear_3372_24271)"/>
<defs>
<linearGradient id="paint0_linear_3372_24271" x1="0.515625" y1="10.2689" x2="17.4758" y2="10.2689" gradientUnits="userSpaceOnUse">
<stop stop-color="#EB0030"/>
<stop offset="1" stop-color="#0079C4"/>
</linearGradient>
</defs>
</svg>
